<?xml version="1.0" standalone="no"?>
<!DOCTYPE svg PUBLIC "-//W3C//DTD SVG 20010904//EN"
 "http://www.w3.org/TR/2001/REC-SVG-20010904/DTD/svg10.dtd">
<svg version="1.0" xmlns="http://www.w3.org/2000/svg"
 width="512.000000pt" height="512.000000pt" viewBox="0 0 512.000000 512.000000"
 preserveAspectRatio="xMidYMid meet">
<metadata>
Created by potrace 1.14, written by Peter Selinger 2001-2017
</metadata>
<g transform="translate(0.000000,512.000000) scale(0.100000,-0.100000)"
fill="#000000" stroke="none">
<path d="M2704 3486 c-44 -19 -71 -52 -93 -111 -16 -43 -286 -1562 -306 -1721
-14 -111 39 -193 145 -226 84 -26 840 -158 904 -158 95 0 137 37 170 149 21
71 21 183 0 226 -30 64 -54 72 -379 130 -136 25 -250 46 -251 48 -2 2 50 314
116 693 131 751 138 814 97 875 -12 18 -40 44 -62 56 -84 47 -272 69 -341 39z"/>
<path d="M1615 3475 c-58 -20 -101 -75 -129 -164 -13 -42 -79 -309 -147 -593
-68 -285 -126 -518 -129 -518 -3 0 -81 242 -174 538 -93 295 -180 561 -195
591 -57 118 -149 147 -304 97 -89 -29 -148 -65 -181 -109 -17 -23 -21 -42 -20
-95 1 -63 20 -117 327 -916 226 -588 335 -860 355 -885 108 -134 361 -116 445
31 23 39 521 1645 547 1763 13 57 6 109 -19 151 -24 39 -123 91 -208 109 -84
18 -117 18 -168 0z"/>
<path d="M4077 3477 c-112 -26 -147 -75 -147 -207 0 -139 40 -879 52 -955 19
-122 86 -163 250 -151 145 10 210 51 223 140 8 53 -41 993 -54 1050 -12 49
-38 85 -80 109 -40 24 -166 31 -244 14z"/>
<path d="M4208 1780 c-77 -14 -128 -48 -157 -105 -24 -45 -26 -60 -26 -170 0
-172 28 -247 110 -289 59 -31 230 -30 297 1 91 42 130 156 109 324 -15 116
-51 186 -111 217 -52 26 -149 36 -222 22z"/>
</g>
</svg>
